<?xml version="1.0" encoding="UTF-8"?>
<!DOCTYPE svg PUBLIC "-//W3C//DTD SVG 1.1//EN" "http://www.w3.org/Graphics/SVG/1.1/DTD/svg11.dtd">
<!-- Creator: CorelDRAW -->
<svg xmlns="http://www.w3.org/2000/svg" xml:space="preserve" width="3.4608in" height="0.659362in" style="shape-rendering:geometricPrecision; text-rendering:geometricPrecision; image-rendering:optimizeQuality; fill-rule:evenodd; clip-rule:evenodd"
viewBox="0 0 1.78049 0.339226"
 xmlns:xlink="http://www.w3.org/1999/xlink">
 <defs>
  <style type="text/css">
   <![CDATA[
    .fil1 {fill:#FF5722}
    .fil3 {fill:white}
    .fil2 {fill:#FF5722;fill-rule:nonzero}
    .fil0 {fill:white;fill-rule:nonzero}
   ]]>
  </style>
 </defs>
 <g id="Layer_x0020_1">
  <metadata id="CorelCorpID_0Corel-Layer"/>
  <g id="_301046384">
   <polygon id="_378831584" class="fil0" points="1.4312,0.223232 1.38296,0.0826037 1.36221,0.0826037 1.42252,0.252658 1.43844,0.252658 1.48499,0.11565 1.5313,0.252658 1.54747,0.252658 1.60777,0.0826037 1.58775,0.0826037 1.5395,0.223232 1.49319,0.0821216 1.47751,0.0821216 "/>
   <polygon id="_3788315841" class="fil0" points="1.61766,0.0826037 1.61766,0.251453 1.63672,0.251453 1.63672,0.0826037 "/>
   <polygon id="_37883158412" class="fil0" points="1.72381,0.100213 1.78049,0.100213 1.78049,0.0826037 1.64783,0.0826037 1.64783,0.100213 1.70451,0.100213 1.70451,0.251453 1.72381,0.251453 "/>
   <path id="_378829592" class="fil1" d="M0.56692 0.253288l0.0588831 0 0 -0.0520653c0.0001033,-0.0193171 0.00423531,-0.0335199 0.0124993,-0.0427136 0.00826401,-0.00919574 0.0200929,-0.013741 0.0355353,-0.0136883l0.00495841 0 0 -0.0619821c-0.00924435,-0.000360538 -0.0172511,0.000929702 -0.0240163,0.00382211 -0.00671654,0.00294507 -0.0124487,0.00718038 -0.0171499,0.0128112 -0.00475181,0.00557821 -0.00867722,0.0122401 -0.0118269,0.0199369l0 -0.0337812 -0.0588831 0 0 0.0256671c0.00347777,0.00520349 0.00648158,0.0107331 0.00899724,0.0165706 0.00562682,0.0130604 0.00837947,0.0268499 0.00837947,0.041075l0 0.000672464c0,0.0142716 -0.00276885,0.028124 -0.00844428,0.0412127 -0.00250554,0.00577873 -0.00549314,0.0112557 -0.00893243,0.0164207l0 0.0260418z"/>
   <path id="_378833528" class="fil1" d="M0.7173 0.257007c0.0109498,-0.0001033 0.0205041,-0.00201334 0.0286142,-0.00578481 0.00805741,-0.00377147 0.0149785,-0.00883318 0.02066,-0.0152884l0 0.0173544 0.0582633 0 0 -0.0963811c5.06373e-005,-0.0117762 -0.0013429,-0.0220556 -0.00423531,-0.0308361 -0.00284177,-0.00883115 -0.00743761,-0.0163214 -0.013741,-0.0224668 -0.00661121,-0.00666387 -0.0151325,-0.0117782 -0.0256184,-0.0152378 -0.010484,-0.00346157 -0.0232425,-0.00521767 -0.0382211,-0.00521767 -0.00955628,0 -0.0182841,0.000569164 -0.0261876,0.0016528 -0.00790145,0.00108566 -0.0152884,0.0025825 -0.0221062,0.00454521 -0.00175813,0.000510424 -0.00350208,0.0010411 -0.00522983,0.00159204l0 0.0458693c0.00415226,-0.00159204 0.00829845,-0.00298963 0.0124082,-0.00412593 0.00485713,-0.00139354 0.00981554,-0.0024792 0.0149806,-0.00320231 0.00516501,-0.000723101 0.0106906,-0.00108364 0.016528,-0.00108364 0.0113104,5.06373e-005 0.0196777,0.00242654 0.0252052,0.00712771 0.00552757,0.00469915 0.00826401,0.0114137 0.00826401,0.0201435l0 0.00278911c-0.00325294,-0.0011363 -0.00697175,-0.00221994 -0.0112597,-0.00320231 -0.00428797,-0.000980339 -0.00888382,-0.0017561 -0.0138422,-0.0023759 -0.00490777,-0.000619801 -0.00996948,-0.000929702 -0.0151851,-0.000929702 -0.0132224,0 -0.0246908,0.00201537 -0.0345043,0.00594077 -0.00981352,0.00397604 -0.0174577,0.00986416 -0.0229326,0.0176643 -0.00542225,0.00779815 -0.00816071,0.0175084 -0.00826401,0.02908l0 0.000619801c5.26628e-005,0.00836732 0.00149887,0.0157523 0.00433861,0.0222095 0.00284177,0.00640461 0.00681781,0.0118269 0.0118795,0.0162181 0.00511437,0.00438925 0.0110531,0.00769485 0.0179236,0.00996948 0.00681781,0.00221994 0.0142554,0.00335624 0.0222622,0.00335624zm-0.0385249 -0.162291c-0.00121732,0.00047194 -0.00242654,0.000954008 -0.00362361,0.00144823l0.00362361 0.0124507 0 -0.0138989zm0.0595981 0.125413c-0.00408137,0 -0.00764421,-0.000723101 -0.0107432,-0.0021693 -0.00309901,-0.0014462 -0.00557821,-0.00356487 -0.00733431,-0.00630131 -0.0017561,-0.0026858 -0.00263517,-0.00599141 -0.0026858,-0.00981352l0 -0.000621827c0,-0.00418264 0.00108364,-0.00779815 0.00320231,-0.0108972 0.00211664,-0.00309901 0.00516501,-0.00552757 0.00919372,-0.00723101 0.00402871,-0.0017561 0.00888382,-0.0025825 0.0145653,-0.00263517 0.00438925,0 0.00857392,0.000413201 0.0124993,0.0012396 0.00397807,0.000775764 0.00743761,0.00180877 0.0104333,0.00309901l0 0.00774751c-5.06373e-005,0.00563087 -0.00129024,0.010486 -0.00376944,0.0145674 -0.0024792,0.00413201 -0.00588811,0.00733431 -0.0102287,0.00960692 -0.00438925,0.00221994 -0.00940032,0.00335624 -0.0151325,0.00340891z"/>
   <path id="_382195312" class="fil2" d="M0.835701 0.253288l0.0588831 0 0 -0.0908029c5.06373e-005,-0.00609471 0.0011363,-0.0112597 0.00325294,-0.0154444 0.00211867,-0.00418264 0.00506171,-0.00733431 0.00878052,-0.00950362 0.00371881,-0.0021693 0.00795411,-0.00325294 0.0127586,-0.00325294 0.00470117,0 0.00878052,0.00108364 0.0122927,0.00325294 0.00351221,0.0021693 0.00630131,0.00532097 0.00826401,0.00950362 0.0019627,0.00418467 0.00294507,0.00934968 0.00299571,0.0154444l0 0.0908029 0.0588831 0 0 -0.109707c-5.26628e-005,-0.0127586 -0.00232527,-0.023759 -0.00687048,-0.0329528 -0.00454521,-0.00919372 -0.0110531,-0.0162202 -0.0195237,-0.0211786 -0.00852328,-0.00495841 -0.0186973,-0.00748825 -0.0306295,-0.00754091 -0.00795411,0.0001033 -0.0149785,0.00139557 -0.0212272,0.00397807 -0.00620004,0.0025825 -0.0116749,0.00588811 -0.0164268,0.0100201 -0.00480245,0.00413201 -0.00893445,0.00852328 -0.01255,0.0132751l0 -0.0235545 -0.0588831 0 0 0.16766z"/>
   <path id="_382194904" class="fil2" d="M1.09886 0.303492c0.0174577,-5.06373e-005 0.0322297,-0.002066 0.0443158,-0.00609471 0.0120861,-0.00402871 0.0219017,-0.00981352 0.0294426,-0.0174577 0.00743761,-0.00738495 0.0129125,-0.0165787 0.0164247,-0.0275305 0.00356284,-0.0110005 0.00531895,-0.0241196 0.00526831,-0.039408l0 -0.127373 -0.0588831 0 0 0.0198357c-0.00418264,-0.00449457 -0.00878052,-0.00847264 -0.0137389,-0.0120355 -0.00495841,-0.00351221 -0.0105873,-0.00630131 -0.0169412,-0.00836732 -0.00635397,-0.002066 -0.0136883,-0.00309901 -0.0220029,-0.00315167 -0.00976288,5.26628e-005 -0.0190072,0.00180877 -0.0276845,0.00542427 -0.00867924,0.00356284 -0.0163741,0.00872785 -0.0230886,0.015495 -0.00671451,0.00676718 -0.0120355,0.0149785 -0.0158576,0.0245854 -0.00387274,0.00960692 -0.00583545,0.0204534 -0.00588811,0.0325922l0 0.000619801c5.26628e-005,0.0120355 0.00201537,0.0228293 0.00583747,0.0324363 0.00382211,0.00955628 0.00909042,0.017717 0.0159082,0.0244842 0.00676515,0.00671451 0.0146686,0.0118795 0.0236051,0.0154424 0.00898712,0.00361551 0.0186447,0.00537161 0.0290274,0.00542427 0.00810805,-5.26628e-005 0.0153391,-0.0012396 0.021693,-0.00346157 0.00630131,-0.0022726 0.0119322,-0.00531895 0.0168379,-0.00909042 0.00490777,-0.00376944 0.00934968,-0.00795411 0.0132224,-0.01255l0 0.00650791c0,0.0133764 -0.00366614,0.0235524 -0.0109498,0.0305769 -0.00733431,0.00702441 -0.0183348,0.0105893 -0.0330561,0.0106399 -0.00749028,0 -0.014618,-0.000619801 -0.0212292,-0.00191004 -0.00666185,-0.0012396 -0.0130665,-0.00304837 -0.0192138,-0.00537161 -0.00609471,-0.00237793 -0.0121894,-0.00521767 -0.0181302,-0.00852328l-0.0189039 0.0390475c0.0120355,0.00619801 0.0249986,0.0109498 0.0388429,0.0142554 0.0138929,0.00325497 0.0289241,0.00490777 0.0451422,0.00495841zm0.00340891 -0.110327c-0.00676718,-5.06373e-005 -0.0127059,-0.0014462 -0.0178709,-0.00423531 -0.00516501,-0.00273644 -0.00919372,-0.00655855 -0.0120861,-0.011363 -0.00289241,-0.00485511 -0.00439127,-0.0103807 -0.00444191,-0.0166313l0 -0.000619801c5.06373e-005,-0.00624865 0.0015495,-0.0118289 0.00444191,-0.016684 0.00289241,-0.00490575 0.00692111,-0.00872785 0.0120861,-0.0115696 0.00516501,-0.00278911 0.0111038,-0.00423531 0.0178709,-0.00428595 0.00666387,5.06373e-005 0.012552,0.0014462 0.0176643,0.00423531 0.00511437,0.00273644 0.00909042,0.00655855 0.0119828,0.011363 0.00289241,0.00485511 0.00439127,0.0103827 0.00444191,0.0166313l0 0.000619801c-5.06373e-005,0.00625067 -0.0015495,0.0118289 -0.00444191,0.016684 -0.00289241,0.00490575 -0.00686845,0.00872785 -0.0119828,0.0115696 -0.00511235,0.00278911 -0.0110005,0.00423531 -0.0176643,0.00428595z"/>
   <path id="_310129952" class="fil2" d="M1.29291 0.257317c0.0111564,-5.06373e-005 0.0211765,-0.00149684 0.0301637,-0.00428797 0.00898712,-0.00283974 0.0169939,-0.00676515 0.0240689,-0.0118795 0.00702644,-0.00506171 0.0132244,-0.0110531 0.0185961,-0.0179216l-0.0325416 -0.0269634c-0.00593875,0.00583747 -0.0119302,0.0101761 -0.0178709,0.0129145 -0.00599141,0.00278911 -0.012396,0.00413201 -0.0193171,0.00413201 -0.00919372,0 -0.0169412,-0.00232527 -0.0232425,-0.00692111 -0.00625067,-0.00464851 -0.0105893,-0.011519 -0.0130158,-0.0206621l0.112186 0c0.000153938,-0.00201334 0.000257238,-0.00407934 0.000257238,-0.00614535 5.26628e-005,-0.002066 5.26628e-005,-0.00408137 5.26628e-005,-0.00594077 0,-0.00991682 -0.00108566,-0.0193678 -0.00325497,-0.0284602 -0.0021693,-0.00909042 -0.00542225,-0.0174577 -0.00981352,-0.0251019 -0.00444191,-0.00769485 -0.0100201,-0.0143587 -0.0167346,-0.0200909 -0.00671451,-0.00568354 -0.014618,-0.0101254 -0.023759,-0.0132751 -0.00909042,-0.00315167 -0.0194731,-0.00475181 -0.0310427,-0.00480447 -0.0124487,5.26628e-005 -0.0238117,0.00232527 -0.0341417,0.00681781 -0.01033,0.00449457 -0.0192138,0.0106926 -0.0267547,0.0186467 -0.00754091,0.00800678 -0.0133257,0.0173038 -0.0174577,0.0278911 -0.00413201,0.0105893 -0.00619801,0.0220556 -0.00625067,0.0343483l0 0.000619801c5.26628e-005,0.0130685 0.0022726,0.0248953 0.00661121,0.0355879 0.00439127,0.0106399 0.0105893,0.019783 0.018594,0.0274778 0.00795411,0.00769688 0.0174598,0.013585 0.0284096,0.017717 0.0109498,0.00418467 0.0230359,0.00625067 0.0362584,0.00630131zm-0.0340891 -0.101649c0.001033,-0.00614737 0.00289241,-0.0114663 0.00547491,-0.0160115 0.00263314,-0.00454521 0.00593875,-0.00805741 0.00991682,-0.0105366 0.00397604,-0.00253187 0.00857392,-0.00377147 0.0137389,-0.00382211 0.00537161,5.06373e-005 0.0101234,0.00129024 0.0142554,0.00371881 0.00408137,0.0024792 0.00738698,0.00599141 0.00991682,0.0105366 0.0025825,0.00449255 0.00423531,0.00986416 0.00495841,0.0161148l-0.0582613 0z"/>
   <path id="_378837536" class="fil2" d="M0.47207 0.265155c0.0147415,-0.000113428 0.0283022,-0.00264529 0.0406253,-0.0075956 0.0123211,-0.00500905 0.0230116,-0.0118734 0.0320717,-0.0207066 0.00900332,-0.00877849 0.0160358,-0.018906 0.0210429,-0.0303844 0.00495233,-0.0114785 0.0074842,-0.0237449 0.00754091,-0.0368559l0 -0.000674489c-5.67138e-005,-0.013109 -0.00258858,-0.0253207 -0.0074842,-0.0367425 -0.00495031,-0.0114218 -0.0119281,-0.0214925 -0.0209315,-0.0302143 -0.00900129,-0.00866506 -0.0195804,-0.0154748 -0.0318468,-0.0204251 -0.0122097,-0.00489562 -0.0256569,-0.00737077 -0.0403438,-0.0074842 -0.0147415,0.000113428 -0.0283022,0.00264529 -0.0406233,0.0075956 -0.0123231,0.00500905 -0.0230137,0.0118734 -0.032017,0.0206499 -0.00905801,0.0088352 -0.0160925,0.0189627 -0.0210996,0.0304411 -0.00495233,0.0114785 -0.0074842,0.0237449 -0.00753889,0.0368539l0 0.000676515c5.46883e-005,0.013109 0.00258656,0.0253207 0.00748217,0.0367425 0.00495233,0.0114218 0.0119281,0.0214925 0.0209315,0.0301576 0.00900332,0.00872178 0.0195804,0.0155315 0.0318468,0.0204251 0.0122097,0.00495233 0.025659,0.00742749 0.0403438,0.00754091zm0.000674489 -0.0543541c-0.00568151,-5.67138e-005 -0.0108587,-0.00112617 -0.0155841,-0.00331978 -0.0047275,-0.00213892 -0.0088352,-0.00512045 -0.0123231,-0.00894661 -0.00343321,-0.00376944 -0.0061332,-0.00815869 -0.00804729,-0.013111 -0.00185535,-0.00489359 -0.0028681,-0.0101842 -0.0028681,-0.015811l0 -0.000674489c5.46883e-005,-0.00742749 0.00163052,-0.0141785 0.00472548,-0.0202549 0.00309495,-0.00607851 0.0074842,-0.0109721 0.0131657,-0.0146301 0.00568354,-0.00365804 0.0124365,-0.00551339 0.020257,-0.00562682 0.00568354,5.67138e-005 0.0108587,0.00112617 0.0155862,0.00331978 0.00472548,0.00213892 0.00883318,0.00512045 0.0123231,0.00888989 0.00343119,0.00382616 0.0061332,0.0082154 0.00804526,0.0131657 0.00185738,0.00489562 0.00287012,0.0101862 0.00287012,0.015811l0 0.000676515c-5.67138e-005,0.00742749 -0.00163255,0.0141785 -0.0047275,0.0202549 -0.00309495,0.00607851 -0.00748217,0.0109721 -0.0131657,0.0146301 -0.00568354,0.00365804 -0.0124345,0.00551339 -0.020257,0.00562682z"/>
   <path id="_378837968" class="fil3" d="M0.183568 0.267797l-0.0223878 -0.083578 -0.0835719 0.0223979 -0.00577468 0.00154748c0.0118107,0.0298922 0.0371334,0.0539997 0.0705743,0.0629625 0.0143851,0.00385451 0.0288714,0.00452293 0.0427116,0.00245287l-0.00155153 -0.00578278z"/>
   <path id="_378837872" class="fil1" d="M0.333404 0.213501c-0.0242391,0.0904586 -0.117221,0.14414 -0.20768,0.119903 -0.0904586,-0.0242391 -0.144142,-0.117221 -0.119903,-0.20768 0.0242391,-0.0904565 0.117219,-0.14414 0.207678,-0.119903 0.0904586,0.0242391 0.144142,0.117221 0.119905,0.20768zm-0.0372347 -0.00997758c-0.0187297,0.0698957 -0.090572,0.111376 -0.160468,0.0926461 -0.0698957,-0.0187277 -0.111376,-0.090572 -0.0926461,-0.160468 0.0187277,-0.0698957 0.090572,-0.111374 0.160468,-0.0926461 0.0698957,0.0187277 0.111374,0.090572 0.0926461,0.160468z"/>
   <path id="_378838136" class="fil1" d="M0.196809 0.0681032c-0.0560697,-0.0150292 -0.113681,0.0182355 -0.128708,0.0743154 -0.00374716,0.01398 -0.00449255,0.0280551 -0.00262909,0.0415449l0.113389 -0.0303885 0.0303804 0.113381c0.029394,-0.0119909 0.0530315,-0.037105 0.0618869,-0.0701469 0.0150271,-0.0560697 -0.0182396,-0.113685 -0.0743194,-0.128706z"/>
  </g>
 </g>
</svg>
