<?xml version="1.0" encoding="utf-8"?>
<!-- Generator: Adobe Illustrator 16.0.0, SVG Export Plug-In . SVG Version: 6.00 Build 0)  -->
<!DOCTYPE svg PUBLIC "-//W3C//DTD SVG 1.1//EN" "http://www.w3.org/Graphics/SVG/1.1/DTD/svg11.dtd">
<svg version="1.1" id="Layer_1" xmlns="http://www.w3.org/2000/svg" xmlns:xlink="http://www.w3.org/1999/xlink" x="0px" y="0px"
	 width="671px" height="189px" viewBox="0 0 671 189" enable-background="new 0 0 671 189" xml:space="preserve">
<g id="Layer_x0020_1">
	<g id="_301046384">
		<polygon id="_378831584" fill="#6E6F71" points="536.38,94.659 518.469,42.438 510.762,42.438 533.156,105.586 539.07,105.586 
			556.356,54.71 573.554,105.586 579.559,105.586 601.95,42.438 594.515,42.438 576.597,94.659 559.4,42.259 553.577,42.259 		"/>
		<polygon id="_3788315841" fill="#6E6F71" points="605.623,42.438 605.623,105.138 612.7,105.138 612.7,42.438 		"/>
		<polygon id="_37883158412" fill="#6E6F71" points="645.041,48.976 666.088,48.976 666.088,42.438 616.826,42.438 616.826,48.976 
			637.874,48.976 637.874,105.138 645.041,105.138 		"/>
		<path id="_378829592" fill="#F15A2B" d="M215.434,105.819H237.3V86.486c0.039-7.173,1.573-12.448,4.643-15.861
			c3.067-3.416,7.46-5.104,13.194-5.084h1.842V42.526c-3.433-0.135-6.406,0.344-8.918,1.417c-2.494,1.093-4.623,2.667-6.368,4.757
			c-1.766,2.073-3.222,4.545-4.393,7.404V43.56h-21.866v9.534c1.292,1.93,2.407,3.985,3.341,6.151
			c2.09,4.851,3.112,9.972,3.112,15.255v0.249c0,5.299-1.029,10.443-3.136,15.304c-0.93,2.146-2.04,4.179-3.317,6.097V105.819
			L215.434,105.819z"/>
		<path id="_378833528" fill="#F15A2B" d="M271.277,107.201c4.068-0.039,7.615-0.747,10.627-2.147
			c2.992-1.4,5.561-3.281,7.671-5.677v6.443h21.636V70.03c0.019-4.374-0.499-8.191-1.573-11.451
			c-1.054-3.281-2.76-6.061-5.102-8.343c-2.456-2.475-5.62-4.375-9.514-5.657c-3.894-1.285-8.63-1.938-14.193-1.938
			c-3.548,0-6.791,0.212-9.725,0.615c-2.936,0.401-5.677,0.959-8.209,1.687c-0.654,0.189-1.3,0.386-1.942,0.59v17.036
			c1.541-0.592,3.081-1.112,4.606-1.534c1.805-0.517,3.646-0.92,5.563-1.187c1.917-0.27,3.971-0.404,6.139-0.404
			c4.199,0.02,7.307,0.901,9.359,2.648c2.054,1.744,3.07,4.237,3.07,7.479v1.035c-1.209-0.422-2.589-0.823-4.183-1.188
			c-1.592-0.363-3.298-0.651-5.14-0.881c-1.822-0.231-3.702-0.348-5.639-0.348c-4.911,0-9.169,0.749-12.813,2.208
			c-3.644,1.478-6.483,3.661-8.516,6.56c-2.013,2.896-3.03,6.501-3.069,10.799v0.229c0.019,3.109,0.557,5.852,1.611,8.249
			c1.055,2.378,2.532,4.391,4.412,6.022c1.9,1.629,4.104,2.857,6.656,3.702C265.542,106.779,268.304,107.201,271.277,107.201z
			 M256.973,46.936c-0.454,0.175-0.902,0.353-1.346,0.537l1.346,4.623V46.936z M279.104,93.506c-1.516,0-2.839-0.268-3.99-0.807
			c-1.151-0.534-2.072-1.322-2.723-2.339c-0.652-0.998-0.979-2.223-0.998-3.643v-0.231c0-1.555,0.402-2.897,1.188-4.048
			c0.787-1.149,1.917-2.052,3.414-2.684c1.497-0.654,3.298-0.959,5.41-0.98c1.63,0,3.183,0.156,4.641,0.461
			c1.478,0.288,2.762,0.672,3.874,1.151v2.876c-0.018,2.091-0.478,3.895-1.399,5.411c-0.921,1.534-2.188,2.723-3.799,3.568
			C283.092,93.065,281.232,93.488,279.104,93.506z"/>
		<path id="_382195312" fill="#F15A2B" d="M315.245,105.819h21.867v-33.72c0.018-2.262,0.419-4.179,1.208-5.733
			s1.878-2.725,3.259-3.53c1.381-0.805,2.954-1.207,4.737-1.207c1.746,0,3.262,0.402,4.565,1.207
			c1.305,0.806,2.339,1.977,3.068,3.53c0.73,1.554,1.093,3.471,1.113,5.733v33.72h21.866V65.08
			c-0.021-4.737-0.863-8.821-2.549-12.235c-1.69-3.416-4.105-6.022-7.25-7.865c-3.167-1.843-6.945-2.781-11.376-2.802
			c-2.954,0.039-5.562,0.519-7.882,1.478c-2.301,0.958-4.335,2.187-6.1,3.721c-1.783,1.534-3.317,3.166-4.659,4.931V43.56h-21.867
			V105.819z"/>
		<path id="_382194904" fill="#F15A2B" d="M412.968,124.464c6.483-0.02,11.965-0.767,16.455-2.265
			c4.488-1.496,8.137-3.643,10.936-6.482c2.763-2.743,4.793-6.154,6.101-10.223c1.319-4.085,1.974-8.957,1.956-14.633V43.56h-21.869
			v7.368c-1.551-1.669-3.259-3.146-5.099-4.471c-1.842-1.303-3.935-2.34-6.292-3.106c-2.361-0.768-5.084-1.151-8.173-1.172
			c-3.623,0.021-7.058,0.674-10.28,2.017c-3.221,1.321-6.083,3.239-8.574,5.752c-2.493,2.513-4.469,5.563-5.888,9.129
			c-1.438,3.568-2.167,7.598-2.187,12.103v0.232c0.02,4.47,0.749,8.478,2.167,12.044c1.42,3.55,3.379,6.578,5.909,9.093
			c2.513,2.492,5.446,4.411,8.766,5.733c3.337,1.344,6.924,1.996,10.779,2.015c3.012-0.019,5.696-0.458,8.058-1.286
			c2.339-0.842,4.431-1.975,6.253-3.373c1.82-1.403,3.469-2.955,4.909-4.663v2.418c0,4.966-1.362,8.745-4.068,11.354
			c-2.721,2.607-6.806,3.933-12.275,3.949c-2.78,0-5.429-0.226-7.882-0.706c-2.475-0.461-4.853-1.132-7.133-1.996
			c-2.265-0.883-4.529-1.938-6.731-3.167l-7.023,14.501c4.47,2.301,9.285,4.066,14.425,5.295
			C401.365,123.831,406.946,124.444,412.968,124.464L412.968,124.464z M414.233,83.494c-2.515-0.019-4.717-0.537-6.635-1.573
			c-1.919-1.017-3.414-2.437-4.487-4.218c-1.076-1.805-1.633-3.857-1.651-6.178v-0.229c0.019-2.323,0.575-4.395,1.651-6.197
			c1.073-1.821,2.568-3.24,4.487-4.296c1.917-1.037,4.12-1.572,6.635-1.593c2.477,0.021,4.662,0.539,6.561,1.573
			c1.899,1.015,3.374,2.435,4.45,4.221c1.075,1.801,1.63,3.856,1.649,6.174v0.232c-0.02,2.321-0.574,4.392-1.649,6.195
			c-1.076,1.822-2.551,3.242-4.45,4.296C418.896,82.939,416.71,83.475,414.233,83.494z"/>
		<path id="_310129952" fill="#F15A2B" d="M485.026,107.315c4.146-0.018,7.866-0.554,11.203-1.59
			c3.336-1.054,6.309-2.512,8.936-4.411c2.612-1.882,4.914-4.104,6.909-6.658l-12.085-10.013c-2.206,2.169-4.433,3.781-6.637,4.796
			c-2.227,1.038-4.605,1.535-7.176,1.535c-3.412,0-6.289-0.864-8.63-2.571c-2.32-1.725-3.933-4.275-4.834-7.673h41.662
			c0.057-0.746,0.093-1.513,0.093-2.279c0.021-0.768,0.021-1.517,0.021-2.208c0-3.683-0.404-7.191-1.207-10.568
			c-0.808-3.376-2.018-6.482-3.646-9.322c-1.647-2.856-3.719-5.331-6.215-7.461c-2.492-2.109-5.429-3.76-8.823-4.928
			c-3.374-1.171-7.229-1.765-11.525-1.786c-4.623,0.021-8.844,0.865-12.679,2.532c-3.838,1.669-7.133,3.972-9.936,6.926
			c-2.802,2.972-4.949,6.424-6.482,10.357c-1.534,3.931-2.305,8.188-2.323,12.754v0.23c0.021,4.854,0.847,9.243,2.455,13.215
			c1.633,3.952,3.935,7.346,6.905,10.203c2.955,2.861,6.486,5.044,10.55,6.579C475.63,106.529,480.118,107.297,485.026,107.315z
			 M472.37,69.569c0.383-2.28,1.073-4.259,2.031-5.945c0.979-1.688,2.205-2.993,3.683-3.913c1.478-0.94,3.186-1.401,5.103-1.42
			c1.996,0.019,3.76,0.48,5.295,1.381c1.515,0.919,2.742,2.227,3.681,3.913c0.959,1.668,1.573,3.665,1.84,5.984H472.37z"/>
		<path id="_378837536" fill="#F15A2B" d="M180.212,110.228c5.474-0.044,10.511-0.982,15.087-2.823
			c4.574-1.859,8.543-4.407,11.91-7.687c3.343-3.259,5.954-7.022,7.814-11.283c1.839-4.263,2.778-8.817,2.801-13.687v-0.251
			c-0.023-4.867-0.961-9.4-2.781-13.643c-1.837-4.243-4.428-7.981-7.772-11.22c-3.343-3.218-7.271-5.748-11.825-7.584
			c-4.536-1.819-9.528-2.739-14.983-2.781c-5.473,0.042-10.509,0.982-15.085,2.822c-4.575,1.86-8.546,4.408-11.889,7.667
			c-3.364,3.281-5.976,7.041-7.835,11.304c-1.838,4.263-2.779,8.818-2.8,13.687V75c0.021,4.866,0.962,9.4,2.78,13.643
			c1.838,4.241,4.429,7.98,7.772,11.199c3.344,3.239,7.271,5.769,11.826,7.585C169.766,109.266,174.759,110.183,180.212,110.228
			L180.212,110.228z M180.462,90.041c-2.108-0.02-4.031-0.416-5.785-1.229c-1.756-0.797-3.281-1.903-4.577-3.323
			c-1.275-1.401-2.278-3.031-2.989-4.869c-0.688-1.818-1.065-3.783-1.065-5.872v-0.251c0.021-2.758,0.606-5.266,1.756-7.52
			c1.149-2.26,2.779-4.077,4.888-5.434c2.111-1.358,4.619-2.048,7.522-2.09c2.111,0.021,4.032,0.418,5.789,1.231
			c1.755,0.795,3.28,1.902,4.576,3.301c1.275,1.423,2.278,3.052,2.988,4.89c0.688,1.819,1.066,3.784,1.066,5.872V75
			c-0.022,2.756-0.606,5.264-1.756,7.52c-1.15,2.259-2.779,4.076-4.889,5.434C185.874,89.311,183.368,90,180.462,90.041z"/>
		<path id="_378837872" display="none" fill="#F15A2B" d="M128.72,91.045c-9.002,33.593-43.531,53.526-77.121,44.525
			C18.007,126.571-1.928,92.042,7.074,58.45c9.001-33.591,43.528-53.525,77.12-44.526C117.785,22.926,137.72,57.455,128.72,91.045z
			 M114.893,87.342c-6.956,25.955-33.635,41.356-59.59,34.402C29.349,114.791,13.944,88.112,20.9,62.154
			c6.954-25.954,33.634-41.359,59.588-34.403C106.444,34.706,121.847,61.385,114.893,87.342z"/>
		<path id="_378837968" display="none" fill="#FFFFFF" d="M73.078,111.207l-8.313-31.035l-31.034,8.318l-2.144,0.576
			c4.386,11.098,13.789,20.051,26.207,23.382c5.342,1.429,10.722,1.678,15.861,0.908L73.078,111.207z"/>
		<path id="_378838136" display="none" fill="#F15A2B" d="M77.997,37.053C57.174,31.472,35.78,43.825,30.201,64.65
			c-1.392,5.19-1.668,10.417-0.977,15.426L71.33,68.793l11.283,42.104c10.916-4.454,19.692-13.781,22.98-26.049
			c5.58-20.821-6.772-42.217-27.598-47.794H77.997z"/>
	</g>
</g>
<path fill-rule="evenodd" clip-rule="evenodd" fill="#EF5225" d="M131.371,65.564c9,33.592-10.936,68.119-44.525,77.121
	c-33.593,9-68.12-10.936-77.122-44.525C0.722,64.566,20.658,30.039,54.25,21.039C87.841,12.037,122.369,31.975,131.371,65.564
	L131.371,65.564z M117.544,69.27c-6.955-25.957-33.634-41.359-59.59-34.404c-25.956,6.952-41.359,33.632-34.403,59.588
	c6.954,25.954,33.633,41.359,59.589,34.405C109.094,121.903,124.497,95.224,117.544,69.27z"/>
<path fill-rule="evenodd" clip-rule="evenodd" fill="#6E6F71" d="M78.585,114.689l-8.557-31.935l-31.932,8.557l-8.859,2.374
	c6.367,22.269,29.258,35.484,51.724,29.863L78.585,114.689z"/>
<path fill-rule="evenodd" clip-rule="evenodd" fill="#EF5225" d="M112.053,70.743c-6.147-22.928-29.701-36.527-52.627-30.386
	c-20.918,5.605-34.07,25.705-31.548,46.599l46.997-12.593l12.593,46.998C106.824,113.099,117.656,91.659,112.053,70.743z"/>
<g>
	<path fill="#515252" d="M331.14,151.378l-4.826,9.607h-3.969l15.742-30.4h4.42l4.194,30.4h-3.834l-1.218-9.607H331.14z
		 M341.334,148.401l-1.173-8.796c-0.181-1.578-0.406-3.789-0.541-5.593h-0.09c-0.812,1.804-1.579,3.698-2.481,5.548l-4.556,8.841
		H341.334z"/>
	<path fill="#515252" d="M350.762,160.985l2.932-15.471c0.496-2.436,0.767-4.556,1.038-6.36h3.337l-0.541,4.285h0.09
		c1.939-3.067,4.871-4.781,8.074-4.781c2.616,0,5.548,1.488,5.548,6.09c0,0.946-0.181,2.345-0.406,3.518l-2.436,12.72h-3.744
		l2.391-12.584c0.18-0.857,0.315-1.895,0.315-2.797c0-2.21-0.857-3.834-3.428-3.834c-2.661,0-6.45,3.202-7.442,8.615l-1.984,10.6
		H350.762z"/>
	<path fill="#515252" d="M389.329,160.985c0-1.308,0.226-3.383,0.496-5.638h-0.09c-2.391,4.51-5.367,6.134-8.479,6.134
		c-3.834,0-6.27-3.067-6.27-7.217c0-7.577,5.593-15.606,15.11-15.606c2.075,0,4.375,0.361,5.864,0.857l-2.21,11.366
		c-0.722,3.789-1.038,7.668-0.947,10.104H389.329z M391.764,141.951c-0.541-0.136-1.353-0.315-2.616-0.315
		c-5.638,0-10.239,5.908-10.284,11.952c0,2.436,0.857,4.826,3.744,4.826c3.112,0,6.811-4.06,7.894-9.878L391.764,141.951z"/>
	<path fill="#515252" d="M398.441,160.985l6.089-32.024h3.744l-6.134,32.024H398.441z"/>
	<path fill="#515252" d="M413.506,139.154l2.165,11.772c0.496,2.481,0.767,4.104,0.993,5.729h0.09
		c0.586-1.398,1.218-2.932,2.346-5.322l5.548-12.179h3.969l-8.163,16.599c-2.346,4.736-4.556,8.57-7.533,11.457
		c-2.436,2.48-5.097,3.519-6.359,3.789l-0.902-3.203c0.947-0.36,2.526-0.947,4.014-2.12c1.443-1.127,3.022-2.887,4.195-5.006
		c0.181-0.361,0.181-0.632,0.135-0.992l-4.375-20.523H413.506z"/>
	<path fill="#515252" d="M438.406,133.291l-1.128,5.863h5.232l-0.586,2.932h-5.232l-2.03,10.6c-0.226,1.219-0.405,2.346-0.405,3.519
		c0,1.309,0.631,2.075,2.074,2.075c0.632,0,1.264-0.045,1.76-0.136l-0.181,2.932c-0.677,0.271-1.805,0.406-2.887,0.406
		c-3.338,0-4.601-2.029-4.601-4.24c0-1.263,0.135-2.525,0.451-4.104l2.165-11.051h-3.158l0.587-2.932h3.112l0.947-4.916
		L438.406,133.291z"/>
	<path fill="#515252" d="M442.736,160.985l4.195-21.831h3.743l-4.194,21.831H442.736z M447.607,133.065
		c0-1.443,1.128-2.526,2.481-2.526c1.353,0,2.21,0.993,2.21,2.346c-0.045,1.488-1.082,2.526-2.525,2.526
		C448.465,135.411,447.607,134.419,447.607,133.065z"/>
	<path fill="#515252" d="M468.086,160.128c-1.128,0.542-3.383,1.309-6.315,1.309c-5.638,0-8.389-3.789-8.389-8.435
		c0-7.442,5.502-14.299,13.351-14.299c2.029,0,3.879,0.587,4.556,0.947l-1.083,2.978c-0.856-0.406-2.074-0.813-3.698-0.813
		c-5.683,0-9.246,5.594-9.246,10.735c0,3.519,1.849,5.818,5.412,5.818c2.21,0,3.925-0.677,5.052-1.218L468.086,160.128z"/>
	<path fill="#515252" d="M472.462,157.196c1.037,0.632,2.932,1.354,4.69,1.354c2.526,0,4.15-1.624,4.15-3.563
		c0-1.714-0.767-2.751-3.022-4.015c-2.525-1.397-3.924-3.337-3.924-5.548c0-3.834,3.293-6.766,7.894-6.766
		c1.984,0,3.743,0.541,4.556,1.083l-1.038,2.841c-0.767-0.45-2.165-0.992-3.788-0.992c-2.256,0-3.88,1.398-3.88,3.293
		c0,1.579,1.038,2.571,2.978,3.653c2.436,1.398,4.104,3.293,4.104,5.729c0,4.601-3.744,7.172-8.345,7.172
		c-2.346,0-4.42-0.722-5.412-1.488L472.462,157.196z"/>
	<path fill="#515252" d="M503.18,131.035c1.714-0.405,4.104-0.676,6.585-0.676c2.932,0,5.729,0.722,7.442,2.345
		c1.443,1.354,2.21,3.112,2.21,5.503c0,3.429-1.669,6.27-3.653,7.938c-2.346,1.985-5.773,2.887-9.201,2.887
		c-1.128,0-2.165-0.09-3.112-0.226l-2.301,12.179h-3.698L503.18,131.035z M504.036,145.649c1.083,0.226,1.939,0.316,3.022,0.316
		c5.142,0,8.569-3.203,8.569-7.488c0-3.608-2.57-5.052-6.044-5.052c-1.488,0-2.616,0.136-3.292,0.316L504.036,145.649z"/>
	<path fill="#515252" d="M520.005,160.985l6.09-32.024h3.743l-6.134,32.024H520.005z"/>
	<path fill="#515252" d="M544.768,160.985c0-1.308,0.226-3.383,0.496-5.638h-0.09c-2.391,4.51-5.367,6.134-8.479,6.134
		c-3.834,0-6.27-3.067-6.27-7.217c0-7.577,5.593-15.606,15.11-15.606c2.074,0,4.375,0.361,5.863,0.857l-2.21,11.366
		c-0.722,3.789-1.038,7.668-0.947,10.104H544.768z M547.204,141.951c-0.542-0.136-1.354-0.315-2.616-0.315
		c-5.639,0-10.239,5.908-10.284,11.952c0,2.436,0.856,4.826,3.743,4.826c3.112,0,6.812-4.06,7.894-9.878L547.204,141.951z"/>
	<path fill="#515252" d="M563.623,133.291l-1.128,5.863h5.232l-0.586,2.932h-5.232l-2.03,10.6c-0.226,1.219-0.405,2.346-0.405,3.519
		c0,1.309,0.631,2.075,2.074,2.075c0.632,0,1.264-0.045,1.76-0.136l-0.181,2.932c-0.677,0.271-1.805,0.406-2.887,0.406
		c-3.338,0-4.601-2.029-4.601-4.24c0-1.263,0.135-2.525,0.451-4.104l2.165-11.051h-3.158l0.587-2.932h3.112l0.947-4.916
		L563.623,133.291z"/>
	<path fill="#515252" d="M568.496,160.985l3.563-18.899h-2.887l0.542-2.932h2.932l0.226-1.127c0.496-3.067,1.578-5.864,3.563-7.623
		c1.354-1.263,3.293-1.939,5.188-1.939c1.488,0,2.48,0.271,2.977,0.586l-0.812,2.978c-0.586-0.271-1.354-0.406-2.21-0.406
		c-2.977,0-4.42,2.887-5.052,6.495l-0.181,1.037h4.871l-0.586,2.932h-4.826l-3.608,18.899H568.496z"/>
	<path fill="#515252" d="M601.647,147.77c0,6.721-4.781,13.712-12.088,13.712c-5.458,0-8.524-4.06-8.524-8.976
		c0-7.172,5.006-13.848,12.088-13.848C599.031,138.658,601.647,143.124,601.647,147.77z M584.914,152.37
		c0,3.563,1.939,6.135,5.142,6.135c4.42,0,7.758-5.684,7.758-10.78c0-2.526-1.173-6.089-5.097-6.089
		C588.026,141.636,584.869,147.363,584.914,152.37z"/>
	<path fill="#515252" d="M604.266,160.985l2.661-14.073c0.542-2.841,0.902-5.728,1.128-7.758h3.293
		c-0.181,1.534-0.361,3.067-0.587,4.736h0.136c1.398-2.977,3.743-5.232,6.676-5.232c0.315,0,0.767,0.045,1.037,0.091l-0.722,3.698
		c-0.226-0.045-0.587-0.09-0.992-0.09c-3.248,0-6.135,3.924-7.082,9.021l-1.804,9.607H604.266z"/>
	<path fill="#515252" d="M618.609,160.985l2.932-15.471c0.451-2.436,0.768-4.556,0.993-6.36h3.292l-0.586,4.104h0.135
		c2.03-3.021,4.781-4.601,7.668-4.601c3.338,0,4.917,2.12,5.097,4.871c1.94-3.157,4.736-4.826,8.029-4.871
		c2.525,0,5.277,1.624,5.277,5.729c0,1.037-0.136,2.48-0.361,3.698l-2.436,12.9h-3.653l2.346-12.584
		c0.18-0.813,0.315-1.939,0.315-2.842c0-2.301-0.857-3.789-3.293-3.789c-2.706,0-5.908,3.157-6.811,8.028l-2.12,11.187h-3.608
		l2.436-12.81c0.181-0.947,0.271-1.805,0.271-2.661c0-1.85-0.496-3.744-3.247-3.744s-6.135,3.608-6.991,8.254l-2.03,10.961H618.609z
		"/>
</g>
</svg>
